<mxfile host="app.diagrams.net" modified="2024-04-02T18:51:51.209Z" agent="Mozilla/5.0 (Windows NT 10.0; Win64; x64; rv:124.0) Gecko/20100101 Firefox/124.0" etag="FT7rRAl1ZhvfMI7WSTTl" version="24.2.0" type="github">
  <diagram name="Page-1" id="6ImMk1EVLLsQNXhPyKLV">
    <mxGraphModel dx="880" dy="470" grid="1" gridSize="10" guides="1" tooltips="1" connect="1" arrows="1" fold="1" page="1" pageScale="1" pageWidth="1100" pageHeight="1700" math="0" shadow="0">
      <root>
        <mxCell id="0" />
        <mxCell id="1" parent="0" />
      </root>
    </mxGraphModel>
  </diagram>
</mxfile>
